#!OML:ASF Y:\EmotionMaleHayes\Project 1\Capture day 1\Session 1\Male1.ASF
:FULLY-SPECIFIED
:DEGREES
2086
root -12.6007 16.8404 -18.6214 322.77 -72.8944 -326.738
lowerback 5.57018 -0.723571 -16.5133
upperback 0.859333 -2.15117 -2.92335
thorax -1.75718 -1.03824 6.26974
lowerneck -20.3796 5.43611 6.65646
upperneck 22.0946 8.06642 -10.3137
head 11.2761 2.88786 -3.6181
rclavicle -6.5102e-015 4.92986e-014
rhumerus -56.9841 -8.6475 -73.3068
rradius 33.2332
rwrist 0.258511
rhand -6.45691 -33.2245
rfingers 7.12502
rthumb 19.3931 -62.2774
lclavicle -6.5102e-015 4.92986e-014
lhumerus -19.2037 -27.7505 90.6085
lradius 46.186
lwrist 6.55181
lhand -13.3754 -22.0891
lfingers 7.12502
lthumb 12.7313 7.50274
rfemur -19.5657 2.3622 2.52324
rtibia 23.7451
rfoot -12.2214 -4.44434
rtoes 2.99592
lfemur 20.049 -0.912381 -37.1963
ltibia 6.52385
lfoot -15.4829 -5.75877
ltoes 3.13491
2087
root -12.7141 16.8275 -18.589 321.595 -71.6014 -325.236
lowerback 5.30267 -0.895438 -17.3215
upperback 0.993683 -2.37999 -3.3044
thorax -1.3949 -1.19114 6.29838
lowerneck -20.4582 5.42018 6.71219
upperneck 21.9088 8.0486 -10.4662
head 11.2307 2.86915 -3.68201
rclavicle 3.24578e-014 -1.11319e-014
rhumerus -56.948 -8.559 -73.5035
rradius 33.359
rwrist 0.133846
rhand -6.68133 -33.1148
rfingers 7.12502
rthumb 19.1773 -62.1893
lclavicle 3.24578e-014 -1.11319e-014
lhumerus -18.7802 -28.2359 90.3681
lradius 46.5299
lwrist 6.91536
lhand -13.5379 -22.8304
lfingers 7.12502
lthumb 12.5746 6.77117
rfemur -19.7641 0.960668 1.06116
rtibia 22.2579
rfoot -11.8103 -2.78025
rtoes 3.47529
lfemur 20.2654 -1.55143 -38.705
ltibia 6.64335
lfoot -14.9779 -6.87127
ltoes 12.5638
2088
root -12.8058 16.8168 -18.5718 321.577 -70.9383 -324.814
lowerback 5.87194 -0.836454 -17.3834
upperback 0.464717 -2.51769 -3.62906
thorax -2.27512 -1.16506 6.02258
lowerneck -20.043 5.25197 6.65214
upperneck 22.0969 7.80756 -10.2683
head 11.1827 2.78625 -3.64761
rclavicle -1.98785e-016 7.95139e-015
rhumerus -57.9457 -8.57629 -73.5556
rradius 33.6163
rwrist -0.0113071
rhand -6.88296 -33.0393
rfingers 7.12502
rthumb 18.9834 -62.133
lclavicle -1.98785e-016 7.95139e-015
lhumerus -19.3432 -28.9699 90.568
lradius 46.8622
lwrist 7.10334
lhand -13.5749 -23.0153
lfingers 7.12502
lthumb 12.539 6.58848
rfemur -20.4258 0.378627 0.494872
rtibia 21.009
rfoot -11.5821 -1.50295
rtoes 5.57017
lfemur 20.2812 -1.96281 -39.2987
ltibia 6.60472
lfoot -14.7232 -7.53742
ltoes 16.491
2089
root -12.937 16.7911 -18.5757 321.696 -70.5004 -324.754
lowerback 4.95971 -0.918824 -18.137
upperback 1.03036 -2.38809 -3.48073
thorax -1.13474 -1.22019 6.53524
lowerneck -20.5296 5.17965 6.28153
upperneck 21.758 7.78309 -10.2803
head 11.1335 2.7384 -3.5799
rclavicle -1.18028e-016 9.38264e-014
rhumerus -57.2254 -8.57848 -73.5484
rradius 33.7323
rwrist -0.100894
rhand -6.89497 -33.1588
rfingers 7.12502
rthumb 18.9718 -62.2536
lclavicle -1.18028e-016 9.38264e-014
lhumerus -18.0725 -29.1684 90.2344
lradius 47.0065
lwrist 7.00265
lhand -13.4712 -22.8166
lfingers 7.12502
lthumb 12.6389 6.78097
rfemur -20.695 0.967927 0.0860885
rtibia 19.1652
rfoot -11.1203 -0.673549
rtoes 9.99023
lfemur 20.6262 -2.05908 -39.348
ltibia 6.57008
lfoot -14.909 -7.7677
ltoes 15.1854
2090
root -13.0772 16.7602 -18.5709 322.127 -69.9225 -325.151
lowerback 4.69346 -0.996402 -18.5425
upperback 1.23266 -2.42346 -3.4572
thorax -0.735697 -1.28288 6.76459
lowerneck -20.7403 5.10522 6.15903
upperneck 21.7228 7.73648 -10.3937
head 11.1575 2.68743 -3.60643
rclavicle 5.58864e-014 1.90833e-014
rhumerus -57.2553 -8.42859 -73.6017
rradius 33.8866
rwrist -0.308806
rhand -6.87741 -33.1664
rfingers 7.12502
rthumb 18.9887 -62.2596
lclavicle 5.58864e-014 1.90833e-014
lhumerus -17.6199 -29.5233 90.1805
lradius 47.1551
lwrist 7.04075
lhand -13.3732 -22.7624
lfingers 7.12502
lthumb 12.7334 6.8294
rfemur -20.5308 0.744376 -0.101324
rtibia 17.7103
rfoot -11.0379 0.385997
rtoes 5.52495
lfemur 21.0977 -2.26387 -39.4409
ltibia 6.77651
lfoot -15.0952 -8.21912
ltoes 15.3877
2091
root -13.2488 16.7031 -18.6803 328.016 -72.945 -331.569
lowerback 4.36956 -0.500347 -16.6217
upperback 1.26954 -1.52956 -2.24744
thorax -0.7502 -0.820089 6.98483
lowerneck -20.8113 5.00623 6.02117
upperneck 21.8618 7.65666 -10.4213
head 11.2112 2.62929 -3.60986
rclavicle 1.49523e-014 1.59028e-014
rhumerus -57.6131 -8.33234 -73.5853
rradius 34.0164
rwrist -0.582038
rhand -6.63164 -32.9669
rfingers 7.12502
rthumb 19.2251 -62.0367
lclavicle 1.49523e-014 1.59028e-014
lhumerus -17.564 -30.0762 90.3077
lradius 47.2429
lwrist 7.26931
lhand -13.2804 -22.8712
lfingers 7.12502
lthumb 12.8229 6.71495
rfemur -21.1235 7.66338 3.93355
rtibia 15.6311
rfoot -11.821 -2.32139
rtoes 12.2364
lfemur 21.9546 -2.51416 -34.6509
ltibia 6.07348
lfoot -15.4978 -7.14417
ltoes 14.2209
